<svg width="397" height="420" viewBox="0 0 397 420" fill="none" xmlns="http://www.w3.org/2000/svg">
<path d="M85.0596 89.3047H83.5259V69.7363L84.4047 70.2248C84.6125 70.3399 84.8364 70.3947 85.0582 70.3947C85.5313 70.3947 85.991 70.1441 86.2374 69.7012C86.5989 69.0505 86.3644 68.23 85.7138 67.8685L60.4796 53.8494V49.3081L61.1064 49.878C61.3619 50.1104 61.6869 50.2283 62.0133 50.2283C62.2912 50.2283 62.5706 50.1426 62.8078 49.9686C63.3251 49.5909 63.5048 48.9017 63.2374 48.3191L47.5161 14.017V7.01624H50.4894C51.2341 7.01624 51.8371 6.4133 51.8371 5.66858C51.8371 4.92456 51.2341 4.32092 50.4894 4.32092H47.5161V1.34766C47.5161 0.603638 46.9125 0 46.1685 0C45.4245 0 44.8208 0.603638 44.8208 1.34766V4.32092H41.8475C41.1028 4.32092 40.4999 4.92456 40.4999 5.66858C40.4999 6.4133 41.1028 7.01624 41.8475 7.01624H44.8208V14.017L29.0989 48.3191C28.8321 48.901 29.0118 49.5909 29.5284 49.9686C30.0457 50.3469 30.7568 50.309 31.2305 49.878L31.8573 49.3081V53.8494L6.62318 67.8685C5.97252 68.23 5.73808 69.0505 6.09956 69.7005C6.34593 70.1441 6.80498 70.394 7.27876 70.394C7.50056 70.394 7.72517 70.3392 7.93224 70.2241L8.81102 69.7363V89.3047H7.27736C6.53334 89.3047 5.9297 89.9083 5.9297 90.6523C5.9297 91.3964 6.53334 92 7.27736 92H85.0589C85.8036 92 86.4065 91.3964 86.4065 90.6523C86.4065 89.9083 85.8036 89.3047 85.0596 89.3047ZM46.1685 17.5455L58.0405 43.4486L47.0746 33.4794C46.8177 33.2464 46.4935 33.1292 46.1685 33.1292C45.8435 33.1292 45.5192 33.2457 45.2616 33.4794L34.2965 43.4486L46.1685 17.5455ZM46.1685 36.2983L57.7843 46.8577V57.5225C57.7843 58.2672 58.3879 58.8701 59.1319 58.8701C59.876 58.8701 60.4796 58.2672 60.4796 57.5225V56.9329L80.8306 68.2391V89.3047H77.7647V77.6889C77.7647 73.7687 74.5752 70.5793 70.6551 70.5793C66.735 70.5793 63.5462 73.7687 63.5462 77.6889V89.3047H60.4796V63.2851C60.4796 62.5411 59.8767 61.9374 59.1319 61.9374C58.3879 61.9374 57.7843 62.5411 57.7843 63.2851V89.3047H54.7184V74.8083C54.7184 70.0936 50.8832 66.2584 46.1685 66.2584C41.4545 66.2584 37.6186 70.0936 37.6186 74.8083V89.3047H34.5527V46.8577L46.1685 36.2983ZM75.0694 89.3047H66.2415V77.6889C66.2415 75.2547 68.2216 73.2746 70.6551 73.2746C73.0893 73.2746 75.0694 75.2554 75.0694 77.6889V89.3047ZM44.8208 89.3047H40.3139V74.8083C40.3139 72.0435 42.2406 69.7223 44.8208 69.1116V89.3047ZM47.5161 69.1116C50.0963 69.7223 52.0231 72.0435 52.0231 74.8083V89.3047H47.5161V69.1116ZM11.5063 68.2391L31.8573 56.9329V89.3047H28.7907V77.6889C28.7907 73.7687 25.602 70.5793 21.6818 70.5793C17.7617 70.5793 14.5723 73.7687 14.5723 77.6889V80.5695C14.5723 81.3135 15.1759 81.9171 15.9199 81.9171C16.6646 81.9171 17.2676 81.3135 17.2676 80.5695V77.6889C17.2676 75.2547 19.2483 73.2746 21.6818 73.2746C24.116 73.2746 26.0954 75.2554 26.0954 77.6889V89.3047H17.2676V86.3314C17.2676 85.5874 16.6646 84.9838 15.9199 84.9838C15.1759 84.9838 14.5723 85.5874 14.5723 86.3314V89.3047H11.5063V68.2391Z" fill="black"/>
<path d="M46.1685 55.9902C49.294 55.9902 51.837 53.4472 51.837 50.3216C51.837 47.1953 49.294 44.6523 46.1685 44.6523C43.0429 44.6523 40.4999 47.1953 40.4999 50.3209C40.4999 53.4472 43.0429 55.9902 46.1685 55.9902ZM46.1685 47.3477C47.8081 47.3477 49.1417 48.6813 49.1417 50.3209C49.1417 51.9606 47.8081 53.2949 46.1685 53.2949C44.5288 53.2949 43.1952 51.9606 43.1952 50.3209C43.1952 48.6813 44.5288 47.3477 46.1685 47.3477Z" fill="black"/>
<path d="M21.6818 86.2385C22.4258 86.2385 23.0295 85.6349 23.0295 84.8908V77.6886C23.0295 76.9446 22.4258 76.3409 21.6818 76.3409C20.9371 76.3409 20.3342 76.9446 20.3342 77.6886V84.8908C20.3342 85.6349 20.9371 86.2385 21.6818 86.2385Z" fill="black"/>
<path d="M70.6551 76.3409C69.9111 76.3409 69.3074 76.9446 69.3074 77.6886V84.8908C69.3074 85.6349 69.9111 86.2385 70.6551 86.2385C71.3991 86.2385 72.0027 85.6349 72.0027 84.8908V77.6886C72.0027 76.9446 71.3998 76.3409 70.6551 76.3409Z" fill="black"/>
<g clip-path="url(#clip0)">
<path d="M307.915 38.4546H351.503V89.5571H307.915V38.4546Z" fill="#ECBD83"/>
<path d="M307.915 38.4546V46.0754H345.491V89.5571H350V38.4546H307.915Z" fill="#E2A975"/>
<path d="M319.375 21.2083L304.909 41.4604H346.994L369.54 20.418H320.91C320.301 20.418 319.73 20.7124 319.375 21.2083Z" fill="#E5646E"/>
<path d="M392.085 89.5571H350V38.4546L371.042 18.915L392.085 38.4546V89.5571Z" fill="#F6D190"/>
<path d="M350 80.5396H392.085V89.5571H350V80.5396Z" fill="#D19A6E"/>
<path d="M307.915 80.5396H350V89.5571H307.915V80.5396Z" fill="#C38C66"/>
<path d="M345.491 80.5396H350V89.5571H345.491V80.5396Z" fill="#B57F5F"/>
<path d="M350 38.4546V44.8098C350.026 44.7864 350.056 44.7695 350.082 44.7461L371.042 25.0967L392.007 44.7505C392.031 44.7725 392.06 44.7886 392.084 44.8105V38.4546L371.042 18.915L350 38.4546Z" fill="#ECBD83"/>
<path d="M327.455 14.4062H336.473V29.4363H327.455V14.4062Z" fill="#F6D190"/>
<path d="M327.455 14.4062H336.473V18.915H327.455V14.4062Z" fill="#ECBD83"/>
<path d="M360.521 47.4729H381.564V62.5029H360.521V47.4729Z" fill="#A4CCFF"/>
<path d="M371.042 30.9392C368.557 30.9392 366.534 32.9629 366.534 35.4487C366.534 37.9338 368.557 39.9575 371.042 39.9575C373.528 39.9575 375.551 37.9338 375.551 35.4487C375.551 32.9629 373.528 30.9392 371.042 30.9392Z" fill="#A4CCFF"/>
<path d="M371.042 34.4153C372.912 34.4153 374.519 35.5608 375.201 37.186C375.426 36.6514 375.551 36.0647 375.551 35.4487C375.551 32.9629 373.528 30.9399 371.042 30.9399C368.557 30.9399 366.534 32.9629 366.534 35.4487C366.534 36.0647 366.659 36.6514 366.884 37.186C367.566 35.5608 369.173 34.4153 371.042 34.4153Z" fill="#8BB3EA"/>
<path d="M360.521 47.4729H381.564V51.9817H360.521V47.4729Z" fill="#8BB3EA"/>
<path d="M318.436 47.4729H339.479V62.5029H318.436V47.4729Z" fill="#A4CCFF"/>
<path d="M318.436 47.4729H339.479V51.9817H318.436V47.4729Z" fill="#8BB3EA"/>
<path d="M318.436 68.5146H339.479V80.5396H318.436V68.5146Z" fill="#A4CCFF"/>
<path d="M318.436 68.5146H339.479V73.0242H318.436V68.5146Z" fill="#8BB3EA"/>
<path d="M360.521 68.5146H381.564V89.5571H360.521V68.5146Z" fill="#A4CCFF"/>
<path d="M360.521 68.5146H381.564V73.0242H360.521V68.5146Z" fill="#8BB3EA"/>
<path d="M304.909 41.4604H346.994L369.54 20.418H362.847L345.211 36.9517H308.13L304.909 41.4604Z" fill="#DB4655"/>
<path d="M396.594 88.1509H393.491V41.8882L394.129 42.4866C394.4 42.7407 394.746 42.8667 395.091 42.8667C395.466 42.8667 395.84 42.7173 396.117 42.4221C396.648 41.856 396.619 40.9661 396.052 40.4343L372.004 17.8889C371.463 17.3821 370.621 17.3821 370.081 17.8889L368.883 19.0117H337.879V15.8125H337.976C338.752 15.8125 339.382 15.1826 339.382 14.4062C339.382 13.6299 338.752 13 337.976 13H325.952C325.175 13 324.545 13.6299 324.545 14.4062C324.545 15.1826 325.175 15.8125 325.952 15.8125H326.048V19.0117H319.939C319.485 19.0117 319.059 19.2314 318.795 19.6006L303.765 40.6431C303.459 41.0723 303.418 41.6355 303.659 42.1042C303.9 42.573 304.383 42.8667 304.909 42.8667H306.509V88.1516H303.406C302.63 88.1516 302 88.7808 302 89.5579C302 90.3342 302.63 90.9641 303.406 90.9641H396.594C397.37 90.9641 398 90.3342 398 89.5579C398 88.7808 397.37 88.1509 396.594 88.1509ZM351.406 63.9092H390.679V79.1333H382.97V68.5154C382.97 67.7383 382.34 67.1091 381.564 67.1091H360.521C359.745 67.1091 359.115 67.7383 359.115 68.5154V79.1333H351.406V63.9092ZM380.157 48.8792V61.0967H372.449V48.8792H380.157ZM369.636 61.0967H361.927V48.8792H369.636V61.0967ZM359.115 81.9458V88.1516H351.406V81.9458H359.115ZM361.927 69.9209H369.636V88.1509H361.927V69.9209ZM372.449 69.9209H380.157V80.5337V80.5396V80.5447V88.1509H372.449V69.9209ZM382.97 81.9458H390.679V88.1516H382.97V81.9458ZM390.679 39.2515V61.0967H382.97V47.4729C382.97 46.6965 382.34 46.0667 381.564 46.0667H360.521C359.745 46.0667 359.115 46.6965 359.115 47.4729V61.0967H351.406V39.2515L371.042 20.8428L390.679 39.2515ZM320.663 21.8242H326.048V21.9209C326.048 22.698 326.678 23.3271 327.455 23.3271C328.231 23.3271 328.861 22.698 328.861 21.9209V15.8125H335.067V28.03H328.861V27.9341C328.861 27.157 328.231 26.5278 327.455 26.5278C326.678 26.5278 326.048 27.157 326.048 27.9341V29.4363C326.048 30.2134 326.678 30.8425 327.455 30.8425H336.473C337.249 30.8425 337.879 30.2134 337.879 29.4363V21.8242H365.883L346.438 40.0542H307.642L320.663 21.8242ZM346.994 42.8667C347.366 42.8667 347.703 42.7217 347.955 42.4858L347.956 42.4866L348.594 41.8882V79.1333H340.885V68.5154C340.885 67.7383 340.255 67.1091 339.479 67.1091H318.436C317.66 67.1091 317.03 67.7383 317.03 68.5154V79.1333H309.321V63.9092H343.988C344.765 63.9092 345.395 63.2793 345.395 62.5029C345.395 61.7266 344.765 61.0967 343.988 61.0967H340.885V47.4729C340.885 46.6965 340.255 46.0667 339.479 46.0667H318.436C317.66 46.0667 317.03 46.6965 317.03 47.4729V61.0967H309.321V42.8667H346.994ZM319.843 79.1333V69.9216H327.551V79.1333H319.843ZM330.364 69.9209H338.073V79.1333H330.364V69.9209ZM338.073 48.8792V61.0967H330.364V48.8792H338.073ZM327.551 61.0967H319.843V48.8792H327.551V61.0967ZM309.321 81.9458H348.594V88.1516H309.321V81.9458Z" fill="black"/>
<path d="M365.127 35.4487C365.127 38.7102 367.78 41.3638 371.042 41.3638C374.304 41.3638 376.958 38.7102 376.958 35.4487C376.958 32.1865 374.304 29.5337 371.042 29.5337C367.78 29.5337 365.127 32.1865 365.127 35.4487ZM374.145 35.4487C374.145 37.1597 372.753 38.5513 371.042 38.5513C369.332 38.5513 367.939 37.1597 367.939 35.4487C367.939 33.7378 369.332 32.3462 371.042 32.3462C372.753 32.3462 374.145 33.7378 374.145 35.4487Z" fill="black"/>
</g>
<path d="M208.703 381.018H181.649L157.6 394.545V418.594H232.751V394.545L208.703 381.018Z" fill="#ECBD83"/>
<path d="M181.649 381.018L157.6 394.545V399.536L172.674 391.162C174.677 390.049 177.14 391.498 177.14 393.79V418.594H183.152V381.018H181.649Z" fill="#E2A975"/>
<path d="M208.703 381.018L232.751 394.545V399.536L217.678 391.162C215.674 390.049 213.212 391.499 213.212 393.79V418.594H207.2V381.018H208.703Z" fill="#E2A975"/>
<path d="M169.625 399.054C166.304 399.054 163.612 401.746 163.612 405.067V418.594H175.636V405.067C175.636 401.746 172.945 399.054 169.625 399.054Z" fill="#E2A975"/>
<path d="M169.625 399.054C166.304 399.054 163.612 401.746 163.612 405.067V409.575C163.612 406.255 166.304 403.564 169.625 403.564C172.945 403.564 175.636 406.255 175.636 409.575V405.067C175.636 401.746 172.945 399.054 169.625 399.054Z" fill="#D19A6E"/>
<path d="M220.727 399.054C217.407 399.054 214.715 401.746 214.715 405.067V418.594H226.739V405.067C226.74 401.746 224.048 399.054 220.727 399.054Z" fill="#E2A975"/>
<path d="M208.703 418.594H181.649V370.497L195.176 358.473L208.703 370.497V418.594Z" fill="#F6D190"/>
<path d="M208.703 370.497L195.176 358.473L181.649 370.497V378.367L181.676 378.343L195.176 366.07L208.676 378.343L208.703 378.367V370.497Z" fill="#ECBD83"/>
<path d="M195.176 338.933L178.643 375.006L195.176 359.976L211.709 375.006L195.176 338.933Z" fill="#E5646E"/>
<path d="M199.685 376.509C199.685 378.999 197.666 381.018 195.176 381.018C192.686 381.018 190.667 378.999 190.667 376.509C190.667 374.019 192.686 372 195.176 372C197.666 372 199.685 374.019 199.685 376.509Z" fill="#A4CCFF"/>
<path d="M195.176 394.545C191.025 394.545 187.66 397.91 187.66 402.061V418.594H202.69V402.061C202.691 397.91 199.326 394.545 195.176 394.545Z" fill="#C38C66"/>
<path d="M220.727 399.054C217.407 399.054 214.715 401.746 214.715 405.067V409.575C214.715 406.255 217.407 403.564 220.727 403.564C224.048 403.564 226.74 406.255 226.74 409.575V405.067C226.74 401.746 224.048 399.054 220.727 399.054Z" fill="#D19A6E"/>
<path d="M195.176 375.006C197.136 375.006 198.787 376.265 199.408 378.012C199.577 377.54 199.685 377.039 199.685 376.509C199.685 374.019 197.666 372 195.176 372C192.686 372 190.667 374.019 190.667 376.509C190.667 377.039 190.775 377.54 190.943 378.012C191.564 376.265 193.215 375.006 195.176 375.006Z" fill="#8BB3EA"/>
<path d="M235.758 417.188H234.157V396.768L235.074 397.278C235.291 397.398 235.525 397.455 235.756 397.455C236.25 397.455 236.73 397.194 236.987 396.732C237.364 396.053 237.119 395.197 236.44 394.819L210.109 380.191V375.452L210.763 376.047C211.03 376.289 211.369 376.412 211.709 376.412C212 376.412 212.291 376.323 212.539 376.141C213.078 375.747 213.266 375.028 212.987 374.42L196.582 338.626V331.321H199.685C200.462 331.321 201.091 330.692 201.091 329.915C201.091 329.139 200.462 328.509 199.685 328.509H196.582V325.406C196.582 324.63 195.952 324 195.176 324C194.399 324 193.77 324.63 193.77 325.406V328.509H190.667C189.89 328.509 189.261 329.139 189.261 329.915C189.261 330.692 189.89 331.321 190.667 331.321H193.77V338.626L177.364 374.42C177.086 375.027 177.273 375.747 177.812 376.141C178.352 376.536 179.094 376.496 179.588 376.047L180.242 375.452V380.191L153.911 394.819C153.232 395.197 152.988 396.053 153.365 396.731C153.622 397.194 154.101 397.455 154.595 397.455C154.827 397.455 155.061 397.397 155.277 397.277L156.194 396.768V417.188H154.594C153.817 417.188 153.188 417.817 153.188 418.594C153.188 419.37 153.817 420 154.594 420H235.757C236.534 420 237.163 419.37 237.163 418.594C237.163 417.817 236.534 417.188 235.758 417.188ZM195.176 342.308L207.564 369.338L196.121 358.935C195.853 358.692 195.515 358.57 195.176 358.57C194.837 358.57 194.498 358.691 194.229 358.935L182.788 369.338L195.176 342.308ZM195.176 361.876L207.297 372.895V384.023C207.297 384.801 207.927 385.43 208.703 385.43C209.479 385.43 210.109 384.801 210.109 384.023V383.408L231.345 395.206V417.188H228.146V405.067C228.146 400.976 224.818 397.648 220.727 397.648C216.636 397.648 213.309 400.976 213.309 405.067V417.188H210.109V390.037C210.109 389.26 209.48 388.63 208.703 388.63C207.927 388.63 207.297 389.26 207.297 390.037V417.188H204.097V402.061C204.097 397.141 200.095 393.139 195.176 393.139C190.257 393.139 186.254 397.141 186.254 402.061V417.188H183.055V372.895L195.176 361.876ZM225.333 417.188H216.122V405.067C216.122 402.527 218.188 400.46 220.727 400.46C223.267 400.46 225.333 402.527 225.333 405.067V417.188ZM193.77 417.188H189.067V402.061C189.067 399.176 191.077 396.754 193.77 396.116V417.188ZM196.582 396.116C199.274 396.754 201.285 399.176 201.285 402.061V417.188H196.582V396.116ZM159.007 395.206L180.242 383.408V417.188H177.042V405.067C177.042 400.976 173.715 397.648 169.625 397.648C165.534 397.648 162.206 400.976 162.206 405.067V408.073C162.206 408.849 162.836 409.479 163.612 409.479C164.389 409.479 165.018 408.849 165.018 408.073V405.067C165.018 402.527 167.085 400.46 169.625 400.46C172.165 400.46 174.23 402.527 174.23 405.067V417.188H165.018V414.085C165.018 413.309 164.389 412.679 163.612 412.679C162.836 412.679 162.206 413.309 162.206 414.085V417.188H159.007V395.206Z" fill="black"/>
<path d="M195.176 382.425C198.437 382.425 201.091 379.771 201.091 376.51C201.091 373.247 198.437 370.594 195.176 370.594C191.914 370.594 189.261 373.247 189.261 376.509C189.261 379.771 191.914 382.425 195.176 382.425ZM195.176 373.406C196.887 373.406 198.278 374.798 198.278 376.509C198.278 378.22 196.887 379.612 195.176 379.612C193.465 379.612 192.073 378.22 192.073 376.509C192.073 374.798 193.465 373.406 195.176 373.406Z" fill="black"/>
<path d="M169.625 413.988C170.401 413.988 171.031 413.358 171.031 412.582V405.067C171.031 404.29 170.401 403.66 169.625 403.66C168.847 403.66 168.218 404.29 168.218 405.067V412.582C168.218 413.358 168.847 413.988 169.625 413.988Z" fill="black"/>
<path d="M220.727 403.66C219.951 403.66 219.321 404.29 219.321 405.067V412.582C219.321 413.358 219.951 413.988 220.727 413.988C221.503 413.988 222.133 413.358 222.133 412.582V405.067C222.133 404.29 221.504 403.66 220.727 403.66Z" fill="black"/>
<path d="M194.646 310.354C194.842 310.549 195.158 310.549 195.354 310.354L198.536 307.172C198.731 306.976 198.731 306.66 198.536 306.464C198.34 306.269 198.024 306.269 197.828 306.464L195 309.293L192.172 306.464C191.976 306.269 191.66 306.269 191.464 306.464C191.269 306.66 191.269 306.976 191.464 307.172L194.646 310.354ZM194.5 262V262.98H195.5V262H194.5ZM194.5 267.878V269.837H195.5V267.878H194.5ZM194.5 274.735V276.694H195.5V274.735H194.5ZM194.5 281.592V283.551H195.5V281.592H194.5ZM194.5 288.449V290.408H195.5V288.449H194.5ZM194.5 295.306V297.265H195.5V295.306H194.5ZM194.5 302.163V304.122H195.5V302.163H194.5ZM194.5 309.02V310H195.5V309.02H194.5ZM194.293 310.707C194.683 311.098 195.317 311.098 195.707 310.707L202.071 304.343C202.462 303.953 202.462 303.319 202.071 302.929C201.681 302.538 201.047 302.538 200.657 302.929L195 308.586L189.343 302.929C188.953 302.538 188.319 302.538 187.929 302.929C187.538 303.319 187.538 303.953 187.929 304.343L194.293 310.707ZM194 262V262.98H196V262H194ZM194 267.878V269.837H196V267.878H194ZM194 274.735V276.694H196V274.735H194ZM194 281.592V283.551H196V281.592H194ZM194 288.449V290.408H196V288.449H194ZM194 295.306V297.265H196V295.306H194ZM194 302.163V304.122H196V302.163H194ZM194 309.02V310H196V309.02H194Z" fill="black"/>
<path d="M248.5 159.98C248.489 160.256 248.704 160.489 248.98 160.5L253.476 160.679C253.752 160.69 253.985 160.476 253.996 160.2C254.007 159.924 253.792 159.691 253.516 159.68L249.52 159.52L249.679 155.524C249.69 155.248 249.476 155.015 249.2 155.004C248.924 154.993 248.691 155.208 248.68 155.484L248.5 159.98ZM313.661 99.6326L312.947 100.292L313.625 101.027L314.339 100.367L313.661 99.6326ZM309.375 103.589L307.947 104.907L308.625 105.642L310.053 104.323L309.375 103.589ZM304.375 108.204L302.947 109.523L303.625 110.258L305.053 108.939L304.375 108.204ZM299.375 112.819L297.947 114.138L298.625 114.873L300.053 113.554L299.375 112.819ZM294.375 117.435L292.947 118.753L293.625 119.488L295.053 118.17L294.375 117.435ZM289.375 122.05L287.947 123.369L288.625 124.104L290.053 122.785L289.375 122.05ZM284.375 126.666L282.947 127.984L283.625 128.719L285.053 127.4L284.375 126.666ZM279.375 131.281L277.947 132.6L278.625 133.334L280.053 132.016L279.375 131.281ZM274.375 135.896L272.947 137.215L273.625 137.95L275.053 136.631L274.375 135.896ZM269.375 140.512L267.947 141.83L268.625 142.565L270.053 141.247L269.375 140.512ZM264.375 145.127L262.947 146.446L263.625 147.181L265.053 145.862L264.375 145.127ZM259.375 149.742L257.947 151.061L258.625 151.796L260.053 150.477L259.375 149.742ZM254.375 154.358L252.947 155.677L253.625 156.411L255.053 155.093L254.375 154.358ZM249.375 158.973L248.661 159.633L249.339 160.367L250.053 159.708L249.375 158.973ZM248.001 159.96C247.979 160.512 248.408 160.977 248.96 160.999L257.953 161.359C258.505 161.381 258.97 160.952 258.992 160.4C259.014 159.848 258.585 159.383 258.033 159.361L250.039 159.041L250.359 151.047C250.381 150.495 249.952 150.03 249.4 150.008C248.848 149.986 248.383 150.415 248.361 150.967L248.001 159.96ZM313.322 99.2652L312.607 99.9245L313.964 101.394L314.678 100.735L313.322 99.2652ZM309.036 103.221L307.607 104.54L308.964 106.01L310.393 104.691L309.036 103.221ZM304.036 107.837L302.607 109.155L303.964 110.625L305.393 109.306L304.036 107.837ZM299.036 112.452L297.607 113.771L298.964 115.24L300.393 113.922L299.036 112.452ZM294.036 117.067L292.607 118.386L293.964 119.856L295.393 118.537L294.036 117.067ZM289.036 121.683L287.607 123.001L288.964 124.471L290.393 123.152L289.036 121.683ZM284.036 126.298L282.607 127.617L283.964 129.086L285.393 127.768L284.036 126.298ZM279.036 130.914L277.607 132.232L278.964 133.702L280.393 132.383L279.036 130.914ZM274.036 135.529L272.607 136.848L273.964 138.317L275.393 136.999L274.036 135.529ZM269.036 140.144L267.607 141.463L268.964 142.933L270.393 141.614L269.036 140.144ZM264.036 144.76L262.607 146.078L263.964 147.548L265.393 146.229L264.036 144.76ZM259.036 149.375L257.607 150.694L258.964 152.163L260.393 150.845L259.036 149.375ZM254.036 153.99L252.607 155.309L253.964 156.779L255.393 155.46L254.036 153.99ZM249.036 158.606L248.322 159.265L249.678 160.735L250.393 160.075L249.036 158.606Z" fill="#001B44"/>
<path d="M149.062 160.496C149.336 160.462 149.53 160.212 149.496 159.938L148.942 155.473C148.908 155.199 148.658 155.004 148.384 155.038C148.11 155.072 147.916 155.322 147.95 155.596L148.442 159.565L144.473 160.058C144.199 160.092 144.004 160.342 144.038 160.616C144.072 160.89 144.322 161.084 144.596 161.05L149.062 160.496ZM71.6927 100.394L72.4784 101.007L73.093 100.218L72.3073 99.6056L71.6927 100.394ZM76.407 104.068L77.9784 105.292L78.593 104.504L77.0216 103.279L76.407 104.068ZM81.907 108.354L83.4784 109.578L84.093 108.789L82.5216 107.565L81.907 108.354ZM87.407 112.639L88.9784 113.864L89.593 113.075L88.0216 111.85L87.407 112.639ZM92.907 116.925L94.4784 118.15L95.093 117.361L93.5216 116.136L92.907 116.925ZM98.407 121.211L99.9784 122.435L100.593 121.646L99.0216 120.422L98.407 121.211ZM103.907 125.496L105.478 126.721L106.093 125.932L104.522 124.708L103.907 125.496ZM109.407 129.782L110.978 131.007L111.593 130.218L110.022 128.993L109.407 129.782ZM114.907 134.068L116.478 135.292L117.093 134.504L115.522 133.279L114.907 134.068ZM120.407 138.354L121.978 139.578L122.593 138.789L121.022 137.565L120.407 138.354ZM125.907 142.639L127.478 143.864L128.093 143.075L126.522 141.85L125.907 142.639ZM131.407 146.925L132.978 148.149L133.593 147.361L132.022 146.136L131.407 146.925ZM136.907 151.211L138.478 152.435L139.093 151.646L137.522 150.422L136.907 151.211ZM142.407 155.496L143.978 156.721L144.593 155.932L143.022 154.708L142.407 155.496ZM147.907 159.782L148.693 160.394L149.307 159.606L148.522 158.993L147.907 159.782ZM149.123 160.992C149.671 160.924 150.06 160.425 149.992 159.877L148.884 150.945C148.816 150.397 148.317 150.008 147.769 150.076C147.22 150.144 146.831 150.644 146.899 151.192L147.884 159.131L139.945 160.116C139.397 160.184 139.008 160.683 139.076 161.231C139.144 161.78 139.644 162.169 140.192 162.101L149.123 160.992ZM71.3854 100.789L72.1711 101.401L73.4004 99.8234L72.6146 99.2112L71.3854 100.789ZM76.0996 104.462L77.6711 105.687L78.9004 104.109L77.3289 102.885L76.0996 104.462ZM81.5996 108.748L83.1711 109.972L84.4004 108.395L82.8289 107.17L81.5996 108.748ZM87.0996 113.034L88.6711 114.258L89.9004 112.681L88.3289 111.456L87.0996 113.034ZM92.5996 117.319L94.1711 118.544L95.4004 116.966L93.8289 115.742L92.5996 117.319ZM98.0996 121.605L99.6711 122.83L100.9 121.252L99.3289 120.028L98.0996 121.605ZM103.6 125.891L105.171 127.115L106.4 125.538L104.829 124.313L103.6 125.891ZM109.1 130.177L110.671 131.401L111.9 129.823L110.329 128.599L109.1 130.177ZM114.6 134.462L116.171 135.687L117.4 134.109L115.829 132.885L114.6 134.462ZM120.1 138.748L121.671 139.972L122.9 138.395L121.329 137.17L120.1 138.748ZM125.6 143.034L127.171 144.258L128.4 142.681L126.829 141.456L125.6 143.034ZM131.1 147.319L132.671 148.544L133.9 146.966L132.329 145.742L131.1 147.319ZM136.6 151.605L138.171 152.83L139.4 151.252L137.829 150.028L136.6 151.605ZM142.1 155.891L143.671 157.115L144.9 155.538L143.329 154.313L142.1 155.891ZM147.6 160.177L148.385 160.789L149.615 159.211L148.829 158.599L147.6 160.177Z" fill="black"/>
<g filter="url(#filter0_d)">
<line x1="179.421" y1="211.452" x2="218.452" y2="172.421" stroke="white" stroke-width="3.05565"/>
<path d="M196.846 150.814C199.368 148.291 202.921 146.955 206.758 147.15C210.602 147.346 214.403 149.065 217.302 151.964C220.201 154.863 221.92 158.665 222.116 162.508C222.311 166.345 220.975 169.898 218.452 172.421" stroke="white" stroke-width="3.05565"/>
<path d="M201.027 233.059C199.776 234.31 198.261 235.28 196.564 235.91C194.866 236.54 193.016 236.819 191.115 236.722C189.214 236.626 187.301 236.155 185.488 235.329C183.676 234.504 182.004 233.342 180.571 231.909C179.138 230.476 177.976 228.804 177.15 226.991C176.325 225.179 175.854 223.266 175.757 221.365C175.66 219.464 175.94 217.613 176.57 215.916C177.2 214.219 178.169 212.704 179.421 211.452" stroke="white" stroke-width="3.05565"/>
<path d="M241.587 194.027C241.587 193.184 240.903 192.5 240.059 192.5L226.309 192.5C225.465 192.5 224.781 193.184 224.781 194.027C224.781 194.871 225.465 195.555 226.309 195.555L238.531 195.555L238.531 207.778C238.531 208.622 239.215 209.306 240.059 209.306C240.903 209.306 241.587 208.622 241.587 207.778L241.587 194.027ZM202.108 234.139L241.139 195.108L238.979 192.947L199.947 231.979L202.108 234.139Z" fill="white"/>
<path d="M156.286 189.846C156.286 190.689 156.97 191.373 157.814 191.373L171.564 191.373C172.408 191.373 173.092 190.689 173.092 189.846C173.092 189.002 172.408 188.318 171.564 188.318L159.342 188.318L159.342 176.095C159.342 175.251 158.658 174.567 157.814 174.567C156.97 174.567 156.286 175.251 156.286 176.095L156.286 189.846ZM195.765 149.734L156.734 188.765L158.894 190.926L197.926 151.894L195.765 149.734Z" fill="white"/>
</g>
<defs>
<filter id="filter0_d" x="148.286" y="145.604" width="101.301" height="108.665" filterUnits="userSpaceOnUse" color-interpolation-filters="sRGB">
<feFlood flood-opacity="0" result="BackgroundImageFix"/>
<feColorMatrix in="SourceAlpha" type="matrix" values="0 0 0 0 0 0 0 0 0 0 0 0 0 0 0 0 0 0 127 0"/>
<feOffset dy="8"/>
<feGaussianBlur stdDeviation="4"/>
<feColorMatrix type="matrix" values="0 0 0 0 0 0 0 0 0 0 0 0 0 0 0 0 0 0 0.25 0"/>
<feBlend mode="normal" in2="BackgroundImageFix" result="effect1_dropShadow"/>
<feBlend mode="normal" in="SourceGraphic" in2="effect1_dropShadow" result="shape"/>
</filter>
<clipPath id="clip0">
<rect width="96" height="96" fill="white" transform="translate(301 4)"/>
</clipPath>
</defs>
</svg>
