<svg width="67" height="67" viewBox="0 0 67 67" fill="none" xmlns="http://www.w3.org/2000/svg">
<line x1="21.1139" y1="45.7728" x2="45.7727" y2="21.114" stroke="#FFFDFD" stroke-width="1.93046"/>
<path d="M32.1225 7.46381C33.7162 5.87006 35.961 5.02598 38.3849 5.14923C40.8132 5.2727 43.215 6.35906 45.0463 8.19037C46.8776 10.0217 47.964 12.4235 48.0875 14.8518C48.2107 17.2757 47.3666 19.5205 45.7729 21.1142" stroke="#FFFDFD" stroke-width="1.93046"/>
<path d="M34.7643 59.4234C33.9737 60.214 33.0165 60.8266 31.9444 61.2245C30.872 61.6226 29.7028 61.799 28.5019 61.7379C27.3007 61.6769 26.0924 61.3793 24.9473 60.8578C23.8022 60.3362 22.7459 59.6022 21.8405 58.6968C20.9351 57.7914 20.201 56.735 19.6795 55.59C19.158 54.4449 18.8604 53.2366 18.7994 52.0354C18.7383 50.8344 18.9147 49.6652 19.3128 48.5928C19.7107 47.5208 20.3233 46.5636 21.114 45.7729" stroke="#FFFDFD" stroke-width="1.93046"/>
<path d="M60.3884 34.7646C60.3884 34.2315 59.9563 33.7993 59.4232 33.7993L50.7361 33.7993C50.203 33.7993 49.7709 34.2315 49.7709 34.7646C49.7709 35.2976 50.203 35.7298 50.7361 35.7298L58.458 35.7298L58.458 43.4516C58.458 43.9847 58.8901 44.4168 59.4232 44.4168C59.9563 44.4168 60.3884 43.9847 60.3884 43.4516L60.3884 34.7646ZM35.4469 60.1059L60.1057 35.4471L58.7407 34.082L34.0819 58.7408L35.4469 60.1059Z" fill="#FFFDFD"/>
<path d="M6.4983 32.1225C6.4983 32.6555 6.93045 33.0877 7.46353 33.0877L16.1506 33.0877C16.6837 33.0877 17.1158 32.6555 17.1158 32.1225C17.1158 31.5894 16.6837 31.1572 16.1506 31.1572L8.42876 31.1572L8.42876 23.4354C8.42876 22.9023 7.99661 22.4702 7.46353 22.4702C6.93045 22.4702 6.4983 22.9023 6.4983 23.4354L6.4983 32.1225ZM31.4398 6.78116L6.78101 31.4399L8.14605 32.805L32.8048 8.1462L31.4398 6.78116Z" fill="#FFFDFD"/>
</svg>
