<svg width="80" height="80" viewBox="0 0 80 80" fill="none" xmlns="http://www.w3.org/2000/svg">
<circle cx="40" cy="40" r="38" stroke="white" stroke-width="4"/>
<path d="M50.5187 56H28.1594V52.8828L39.9719 39.7578C41.7219 37.7734 42.925 36.1641 43.5812 34.9297C44.2531 33.6797 44.5891 32.3906 44.5891 31.0625C44.5891 29.2812 44.05 27.8203 42.9719 26.6797C41.8937 25.5391 40.4562 24.9688 38.6594 24.9688C36.5031 24.9688 34.8234 25.5859 33.6203 26.8203C32.4328 28.0391 31.8391 29.7422 31.8391 31.9297H27.5031C27.5031 28.7891 28.5109 26.25 30.5266 24.3125C32.5578 22.375 35.2687 21.4062 38.6594 21.4062C41.8312 21.4062 44.3391 22.2422 46.1828 23.9141C48.0266 25.5703 48.9484 27.7812 48.9484 30.5469C48.9484 33.9062 46.8078 37.9062 42.5266 42.5469L33.3859 52.4609H50.5187V56Z" fill="white"/>
</svg>
