<svg width="80" height="80" viewBox="0 0 80 80" fill="none" xmlns="http://www.w3.org/2000/svg">
<circle cx="40" cy="40" r="38" stroke="white" stroke-width="4"/>
<path d="M34.4641 36.8281H37.7219C39.7687 36.7969 41.3781 36.2578 42.55 35.2109C43.7219 34.1641 44.3078 32.75 44.3078 30.9688C44.3078 26.9688 42.3156 24.9688 38.3312 24.9688C36.4562 24.9688 34.9562 25.5078 33.8312 26.5859C32.7219 27.6484 32.1672 29.0625 32.1672 30.8281H27.8312C27.8312 28.125 28.8156 25.8828 30.7844 24.1016C32.7687 22.3047 35.2844 21.4062 38.3312 21.4062C41.55 21.4062 44.0734 22.2578 45.9016 23.9609C47.7297 25.6641 48.6437 28.0312 48.6437 31.0625C48.6437 32.5469 48.1594 33.9844 47.1906 35.375C46.2375 36.7656 44.9328 37.8047 43.2766 38.4922C45.1516 39.0859 46.5969 40.0703 47.6125 41.4453C48.6437 42.8203 49.1594 44.5 49.1594 46.4844C49.1594 49.5469 48.1594 51.9766 46.1594 53.7734C44.1594 55.5703 41.5578 56.4688 38.3547 56.4688C35.1516 56.4688 32.5422 55.6016 30.5266 53.8672C28.5266 52.1328 27.5266 49.8438 27.5266 47H31.8859C31.8859 48.7969 32.4719 50.2344 33.6437 51.3125C34.8156 52.3906 36.3859 52.9297 38.3547 52.9297C40.4484 52.9297 42.05 52.3828 43.1594 51.2891C44.2687 50.1953 44.8234 48.625 44.8234 46.5781C44.8234 44.5938 44.2141 43.0703 42.9953 42.0078C41.7766 40.9453 40.0187 40.3984 37.7219 40.3672H34.4641V36.8281Z" fill="white"/>
</svg>
